<?xml version="1.0" standalone="no"?>
<!DOCTYPE svg PUBLIC "-//W3C//DTD SVG 20010904//EN"
 "http://www.w3.org/TR/2001/REC-SVG-20010904/DTD/svg10.dtd">
<svg version="1.0" xmlns="http://www.w3.org/2000/svg"
 width="1024.000000pt" height="1024.000000pt" viewBox="0 0 1024.000000 1024.000000"
 preserveAspectRatio="xMidYMid meet">
<metadata>
Created by potrace 1.11, written by Peter Selinger 2001-2013
</metadata>
<g transform="translate(0.000000,1024.000000) scale(0.100000,-0.100000)"
fill="#000000" stroke="none">
<path d="M4090 9603 c0 -4 -98 -8 -218 -9 -297 -1 -598 -12 -743 -28 -112 -13
-146 -17 -212 -31 -38 -8 -72 -14 -75 -13 -4 0 -9 0 -12 -2 -3 -1 -14 -3 -25
-5 -40 -8 -201 -56 -255 -76 -148 -56 -287 -114 -301 -126 -8 -7 -20 -13 -25
-13 -13 0 -98 -44 -102 -52 -2 -5 -10 -8 -17 -8 -8 0 -20 -6 -27 -12 -8 -7
-34 -24 -58 -37 -77 -41 -220 -140 -325 -225 -136 -110 -305 -277 -401 -397
-32 -41 -61 -76 -65 -79 -3 -3 -20 -27 -39 -55 -19 -27 -36 -52 -39 -55 -11
-9 -51 -69 -51 -76 0 -3 -10 -20 -22 -37 -28 -39 -37 -53 -68 -114 -14 -26
-27 -50 -30 -53 -9 -9 -80 -159 -80 -170 0 -5 -4 -10 -10 -10 -5 0 -10 -7 -10
-15 0 -8 -9 -34 -20 -58 -34 -73 -103 -272 -125 -357 -2 -8 -13 -51 -24 -95
-39 -150 -47 -300 -58 -1120 -9 -692 -9 -2609 0 -2825 13 -308 29 -495 52
-600 3 -14 8 -38 10 -55 3 -16 9 -45 14 -62 5 -18 8 -33 5 -33 -2 0 2 -13 11
-30 9 -16 13 -30 11 -30 -3 0 1 -18 9 -40 8 -22 14 -41 13 -43 0 -1 7 -19 16
-41 9 -21 16 -44 16 -51 0 -6 3 -15 7 -19 4 -3 8 -16 10 -29 2 -12 8 -26 13
-31 6 -6 10 -18 10 -28 0 -10 5 -18 10 -18 6 0 10 -5 10 -10 0 -6 7 -27 17
-48 9 -20 17 -39 18 -42 8 -32 18 -50 26 -50 5 0 9 -7 9 -15 0 -9 10 -32 23
-53 12 -20 33 -58 47 -85 13 -26 28 -47 32 -47 5 0 8 -5 8 -12 0 -9 122 -197
152 -233 5 -5 18 -22 31 -36 12 -14 35 -43 51 -63 60 -77 232 -257 239 -250 2
2 10 -7 17 -21 7 -14 17 -25 21 -25 5 0 16 -8 26 -18 14 -15 89 -76 208 -170
6 -5 24 -17 40 -28 17 -10 32 -21 35 -24 10 -13 151 -100 160 -100 6 0 10 -3
10 -7 0 -5 10 -13 23 -19 12 -6 69 -35 127 -65 58 -29 107 -54 110 -54 3 -1
26 -11 52 -23 26 -12 49 -22 52 -22 2 0 17 -5 33 -11 15 -6 30 -11 33 -11 3 0
14 -5 25 -11 11 -6 25 -12 30 -13 6 -1 48 -13 95 -27 102 -30 230 -59 285 -64
174 -16 663 -29 1470 -39 171 -2 315 -4 320 -4 6 0 43 1 83 2 39 2 72 -1 72
-5 0 -5 6 -5 12 -1 11 7 146 10 173 4 6 -1 12 -2 15 -1 15 6 148 3 158 -2 6
-4 13 -4 15 0 6 10 100 8 116 -1 6 -4 11 -4 11 1 0 4 35 7 77 5 80 -2 107 -2
178 -1 22 0 45 0 50 -1 6 -1 15 -1 20 0 30 7 192 4 203 -4 6 -4 12 -5 12 0 0
12 173 11 182 -1 5 -7 8 -7 8 0 0 6 73 10 198 11 400 3 853 17 910 28 15 3 48
8 74 11 25 3 75 11 109 19 34 8 66 13 71 10 4 -3 8 0 8 7 0 7 3 10 6 7 3 -4
20 -2 37 4 18 5 41 11 52 13 104 17 522 180 533 207 2 5 9 8 14 8 10 0 215
120 242 141 6 5 54 40 106 79 105 77 152 116 248 205 90 83 222 221 279 291
18 21 49 59 69 84 48 59 204 295 204 309 0 6 5 11 10 11 6 0 10 9 10 19 0 11
3 21 8 23 8 3 89 165 94 189 2 8 5 16 9 19 9 9 49 108 49 124 0 9 5 16 10 16
6 0 9 3 8 8 -2 4 5 27 14 52 9 25 22 65 29 90 15 55 14 52 22 70 10 25 26 92
32 135 3 22 8 56 11 75 3 19 8 78 11 130 3 52 6 115 8 140 2 25 6 101 9 170 3
69 6 125 6 125 13 0 19 1781 7 2080 -8 212 -11 238 -32 300 -42 125 -126 243
-212 296 -32 20 -38 22 -108 33 -130 20 -189 25 -510 41 -169 8 -282 20 -333
34 -18 5 -35 10 -37 10 -12 2 -104 50 -143 75 -61 38 -125 106 -154 162 -22
43 -30 66 -45 124 -10 40 -19 163 -28 380 -3 63 -7 135 -10 160 -4 25 -7 56
-8 70 -2 14 -6 31 -11 38 -4 7 -6 16 -3 18 2 3 1 22 -4 42 -5 20 -12 48 -14
62 -18 101 -83 305 -137 430 -32 72 -129 264 -142 280 -7 8 -21 32 -31 53 -11
21 -28 47 -37 57 -10 11 -18 22 -18 24 0 7 -120 177 -137 194 -7 8 -26 30 -41
50 -86 115 -310 344 -451 462 -30 25 -59 50 -65 55 -6 6 -27 22 -46 35 -19 13
-37 27 -40 30 -10 13 -150 110 -159 110 -5 0 -14 7 -21 15 -10 12 -48 36 -150
93 -76 43 -216 112 -227 112 -7 0 -13 5 -13 10 0 6 -8 10 -18 10 -10 0 -22 4
-28 8 -5 4 -36 18 -69 31 -33 12 -69 27 -80 31 -33 14 -137 48 -180 59 -78 19
-127 24 -345 36 -112 6 -680 17 -990 19 -135 1 -251 5 -257 9 -7 5 -13 5 -13
0 0 -10 -121 -10 -138 1 -7 4 -12 4 -12 -1z m870 -2387 c107 -3 206 -8 220
-11 14 -3 38 -8 55 -11 38 -7 165 -65 165 -76 0 -4 5 -8 11 -8 6 0 17 -6 25
-14 7 -8 24 -23 37 -33 53 -43 101 -126 124 -214 10 -40 11 -221 1 -259 -5
-19 -16 -49 -24 -67 -8 -17 -14 -36 -14 -42 0 -6 -4 -11 -10 -11 -5 0 -10 -7
-10 -15 0 -24 -134 -149 -191 -177 -79 -40 -122 -46 -359 -52 -272 -8 -381 -8
-387 -3 -3 3 -16 2 -29 -3 -14 -6 -26 -6 -29 0 -3 6 -15 6 -30 0 -15 -6 -27
-6 -30 1 -4 5 -11 6 -17 3 -18 -12 -338 -10 -339 1 0 7 -2 7 -5 0 -4 -10 -134
-10 -494 0 -235 7 -256 9 -306 25 -64 21 -108 48 -155 94 -67 66 -79 82 -117
161 -17 36 -23 55 -39 120 -13 55 -10 165 8 232 39 154 181 302 315 328 124
24 153 25 529 31 187 3 343 6 347 7 14 3 547 -2 748 -7z m-968 -3221 c8 9 102
10 116 2 6 -5 12 -5 12 0 0 11 331 10 349 -1 9 -6 12 -5 8 0 -4 7 1833 11
1898 4 6 -1 19 -1 30 0 62 5 380 -19 460 -35 131 -26 299 -193 332 -330 20
-84 23 -158 10 -245 -7 -44 -42 -126 -65 -152 -8 -10 -12 -18 -9 -18 19 0
-112 -128 -145 -143 -16 -6 -28 -14 -28 -17 0 -3 -10 -5 -22 -6 -13 0 -39 -3
-58 -7 -19 -3 -57 -9 -85 -13 -27 -3 -59 -8 -70 -11 -35 -7 -236 -12 -745 -18
-272 -3 -519 -6 -548 -8 -28 -1 -52 2 -52 6 0 5 -6 5 -12 0 -22 -13 -1532 -12
-1540 1 -5 7 -8 7 -8 0 0 -11 -19 -11 -238 0 -264 13 -311 27 -412 126 -148
143 -198 295 -156 465 2 6 6 24 11 40 15 62 72 160 120 210 63 66 99 90 155
106 97 27 173 34 474 44 99 3 182 8 185 10 2 3 9 0 16 -5 7 -5 14 -8 17 -5z"/>
</g>
</svg>
